# xmcd
#
# Track frame offsets: 
#        150
#        13243
#        41176
#        55068
#        69006
#        83523
#        97625
#        124889
#        138772
#        152947
#        167482
#        180898
#        193602
#        206505
#        220396
#        234410
#        248180
#        259836
#
# Disc length: 3650 seconds
#
# Revision: 1
# Processed by: cddbd v1.5.2PL0 Copyright (c) Steve Scherf et al.
# Submitted via: ExactAudioCopy v0.95b4
#
DISCID=e80e4012
DTITLE=Various Artist - Classic Blues Songs From The 1920`s, Vol. 7
DYEAR=2009
DGENRE=Blues
TTITLE0=Robert Wilkins - That's No Way To Get Along
TTITLE1=Charley Patton - High Water Everywhere, Part 1 and 2
TTITLE2=Skip James - Hard Luck Child
TTITLE3=Blind Lemon Jefferson - Match Box Blues
TTITLE4=Ida Cox - Mojo Hand Blues
TTITLE5=Mississippi Sheiks - She's Crazy 'Bout Her Lovin'
TTITLE6=Charlie Turner and Winston Holmes - The Death Of Holmes' Mule, P
TTITLE6=arts 1 and 2
TTITLE7=Ma Rainey - Slow Driving Moan
TTITLE8=Blind Blake - Early Morning Blues
TTITLE9=Papa Charlie Jackson - Coal Man Blues
TTITLE10=Ramblin 'Thomas - Sawmill Moan
TTITLE11=The Black Billy Sunday - This Old World's In A Hell Of A Fix
TTITLE12=Frank Palmes - Ain't Gonna Lay My 'Ligion Down, Take 1
TTITLE13=Frank Palmes - Ain't Gonna Lay My 'Ligion Down, Take 2
TTITLE14=Irene Scruggs with Blind Blake - Married Man Blues Test, Take
TTITLE14=1
TTITLE15=Irene Scruggs with Blind Blake - Married Man Blues Test, Take
TTITLE15=2
TTITLE16=Henry Townsend - Doctor Oh Doctor
TTITLE17=Henry Townsend - Jack O' Diamonds - Georgia Rub
EXTD=YEAR: 2009
EXTT0=
EXTT1=
EXTT2=
EXTT3=
EXTT4=
EXTT5=
EXTT6=
EXTT7=
EXTT8=
EXTT9=
EXTT10=
EXTT11=
EXTT12=
EXTT13=
EXTT14=
EXTT15=
EXTT16=
EXTT17=
PLAYORDER=
